<svg xmlns="http://www.w3.org/2000/svg" xmlns:xlink="http://www.w3.org/1999/xlink" viewBox="0 0 750 629"><defs id="defs_block"><filter id="filter_blur" width="1.157" height="1.504" x="-.079" y="-.252"><feGaussianBlur id="feGaussianBlur3780" stdDeviation="4.2"/></filter></defs><title>blockdiag</title><desc>seqdiag { edge_length = 250; span_height = 40; node_width=200; default_note_color = lightblue; // Use note (put note on rightside) api [label=&quot;Compute.api&quot;]; manager [label=&quot;Compute.manager&quot;]; api -&gt; manager [label = &quot;create_db_entry_for_new_instance&quot;, note = &quot;VM: Building Task: Scheduling Power: No State&quot;]; manager -&gt; manager [label=&quot;_start_building&quot;, note =&quot;VM: Building Task: None&quot;]; manager -&gt; manager [label=&quot;_allocate_network&quot;, note =&quot;VM: Building Task: Networking&quot;]; manager -&gt; manager [label=&quot;_prep_block_device&quot;, note =&quot;VM: Building Task: Block_Device_Mapping&quot;]; manager -&gt; manager [label=&quot;_spawn&quot;, note =&quot;VM: Building Task: Spawning&quot;]; api &lt;-- manager [note =&quot;VM: Active Task: None&quot;]; }</desc><rect width="8" height="461" x="163" fill="#000" style="filter:url(#filter_blur);opacity:.7;fill-opacity:1" y="146"/><rect width="8" height="385" x="413" fill="#000" style="filter:url(#filter_blur);opacity:.7;fill-opacity:1" y="146"/><polygon fill="#000" stroke="#000" points="433 126 545 126 553 134 553 167 433 167 433 126" style="filter:url(#filter_blur);opacity:.7;fill-opacity:1"/><polygon fill="#000" stroke="#000" points="557 208 645 208 653 216 653 236 557 236 557 208" style="filter:url(#filter_blur);opacity:.7;fill-opacity:1"/><polygon fill="#000" stroke="#000" points="557 289 669 289 677 297 677 317 557 317 557 289" style="filter:url(#filter_blur);opacity:.7;fill-opacity:1"/><polygon fill="#000" stroke="#000" points="557 370 729 370 737 378 737 398 557 398 557 370" style="filter:url(#filter_blur);opacity:.7;fill-opacity:1"/><polygon fill="#000" stroke="#000" points="557 451 657 451 665 459 665 479 557 479 557 451" style="filter:url(#filter_blur);opacity:.7;fill-opacity:1"/><polygon fill="#000" stroke="#000" points="433 517 509 517 517 525 517 545 433 545 433 517" style="filter:url(#filter_blur);opacity:.7;fill-opacity:1"/><rect width="200" height="40" x="67" y="46" fill="#000" stroke="#000" style="filter:url(#filter_blur);opacity:.7;fill-opacity:1"/><rect width="200" height="40" x="317" y="46" fill="#000" stroke="#000" style="filter:url(#filter_blur);opacity:.7;fill-opacity:1"/><path fill="none" stroke="#000" stroke-dasharray="8 4" d="M 164 80 L 164 617"/><rect width="8" height="461" x="160" y="140" fill="#ffe4b5" stroke="#000"/><path fill="none" stroke="#000" stroke-dasharray="8 4" d="M 414 80 L 414 617"/><rect width="8" height="385" x="410" y="140" fill="#ffe4b5" stroke="#000"/><rect width="200" height="40" x="64" y="40" fill="#FFF" stroke="#000"/><text x="164" y="66" fill="#000" font-family="sans-serif" font-size="11" font-style="normal" font-weight="normal" text-anchor="middle" textLength="66">Compute.api</text><rect width="200" height="40" x="314" y="40" fill="#FFF" stroke="#000"/><text x="414" y="66" fill="#000" font-family="sans-serif" font-size="11" font-style="normal" font-weight="normal" text-anchor="middle" textLength="90">Compute.manager</text><path fill="none" stroke="#000" d="M 172 140 L 406 140"/><polygon fill="#000" stroke="#000" points="398 136 406 140 398 144"/><polygon fill="#ADD8E6" stroke="#000" points="430 120 542 120 550 128 550 161 430 161 430 120"/><path fill="none" stroke="#000" d="M 542 120 L 542 128"/><path fill="none" stroke="#000" d="M 542 128 L 550 128"/><text x="474" y="133" fill="#000" font-family="sans-serif" font-size="11" font-style="normal" font-weight="normal" text-anchor="middle" textLength="72">VM: Building</text><text x="486" y="146" fill="#000" font-family="sans-serif" font-size="11" font-style="normal" font-weight="normal" text-anchor="middle" textLength="96">Task: Scheduling</text><text x="483" y="159" fill="#000" font-family="sans-serif" font-size="11" font-style="normal" font-weight="normal" text-anchor="middle" textLength="90">Power: No State</text><path fill="none" stroke="#000" d="M 422 216 L 538 216"/><path fill="none" stroke="#000" d="M 538 216 L 538 232"/><path fill="none" stroke="#000" d="M 538 232 L 422 232"/><polygon fill="#000" stroke="#000" points="430 228 422 232 430 236"/><polygon fill="#ADD8E6" stroke="#000" points="554 202 642 202 650 210 650 230 554 230 554 202"/><path fill="none" stroke="#000" d="M 642 202 L 642 210"/><path fill="none" stroke="#000" d="M 642 210 L 650 210"/><text x="598" y="215" fill="#000" font-family="sans-serif" font-size="11" font-style="normal" font-weight="normal" text-anchor="middle" textLength="72">VM: Building</text><text x="592" y="228" fill="#000" font-family="sans-serif" font-size="11" font-style="normal" font-weight="normal" text-anchor="middle" textLength="60">Task: None</text><path fill="none" stroke="#000" d="M 422 297 L 538 297"/><path fill="none" stroke="#000" d="M 538 297 L 538 313"/><path fill="none" stroke="#000" d="M 538 313 L 422 313"/><polygon fill="#000" stroke="#000" points="430 309 422 313 430 317"/><polygon fill="#ADD8E6" stroke="#000" points="554 283 666 283 674 291 674 311 554 311 554 283"/><path fill="none" stroke="#000" d="M 666 283 L 666 291"/><path fill="none" stroke="#000" d="M 666 291 L 674 291"/><text x="598" y="296" fill="#000" font-family="sans-serif" font-size="11" font-style="normal" font-weight="normal" text-anchor="middle" textLength="72">VM: Building</text><text x="610" y="309" fill="#000" font-family="sans-serif" font-size="11" font-style="normal" font-weight="normal" text-anchor="middle" textLength="96">Task: Networking</text><path fill="none" stroke="#000" d="M 422 378 L 538 378"/><path fill="none" stroke="#000" d="M 538 378 L 538 394"/><path fill="none" stroke="#000" d="M 538 394 L 422 394"/><polygon fill="#000" stroke="#000" points="430 390 422 394 430 398"/><polygon fill="#ADD8E6" stroke="#000" points="554 364 726 364 734 372 734 392 554 392 554 364"/><path fill="none" stroke="#000" d="M 726 364 L 726 372"/><path fill="none" stroke="#000" d="M 726 372 L 734 372"/><text x="598" y="377" fill="#000" font-family="sans-serif" font-size="11" font-style="normal" font-weight="normal" text-anchor="middle" textLength="72">VM: Building</text><text x="640" y="390" fill="#000" font-family="sans-serif" font-size="11" font-style="normal" font-weight="normal" text-anchor="middle" textLength="156">Task: Block_Device_Mapping</text><path fill="none" stroke="#000" d="M 422 459 L 538 459"/><path fill="none" stroke="#000" d="M 538 459 L 538 475"/><path fill="none" stroke="#000" d="M 538 475 L 422 475"/><polygon fill="#000" stroke="#000" points="430 471 422 475 430 479"/><polygon fill="#ADD8E6" stroke="#000" points="554 445 654 445 662 453 662 473 554 473 554 445"/><path fill="none" stroke="#000" d="M 654 445 L 654 453"/><path fill="none" stroke="#000" d="M 654 453 L 662 453"/><text x="598" y="458" fill="#000" font-family="sans-serif" font-size="11" font-style="normal" font-weight="normal" text-anchor="middle" textLength="72">VM: Building</text><text x="604" y="471" fill="#000" font-family="sans-serif" font-size="11" font-style="normal" font-weight="normal" text-anchor="middle" textLength="84">Task: Spawning</text><path fill="none" stroke="#000" stroke-dasharray="4" d="M 172 525 L 406 525"/><polygon fill="#000" stroke="#000" points="180 521 172 525 180 529"/><polygon fill="#ADD8E6" stroke="#000" points="430 511 506 511 514 519 514 539 430 539 430 511"/><path fill="none" stroke="#000" d="M 506 511 L 506 519"/><path fill="none" stroke="#000" d="M 506 519 L 514 519"/><text x="468" y="524" fill="#000" font-family="sans-serif" font-size="11" font-style="normal" font-weight="normal" text-anchor="middle" textLength="60">VM: Active</text><text x="468" y="537" fill="#000" font-family="sans-serif" font-size="11" font-style="normal" font-weight="normal" text-anchor="middle" textLength="60">Task: None</text><text x="272" y="138" fill="#000" font-family="sans-serif" font-size="11" font-style="normal" font-weight="normal" text-anchor="middle" textLength="192">create_db_entry_for_new_instance</text><text x="467" y="214" fill="#000" font-family="sans-serif" font-size="11" font-style="normal" font-weight="normal" text-anchor="middle" textLength="90">_start_building</text><text x="473" y="295" fill="#000" font-family="sans-serif" font-size="11" font-style="normal" font-weight="normal" text-anchor="middle" textLength="102">_allocate_network</text><text x="476" y="376" fill="#000" font-family="sans-serif" font-size="11" font-style="normal" font-weight="normal" text-anchor="middle" textLength="108">_prep_block_device</text><text x="440" y="457" fill="#000" font-family="sans-serif" font-size="11" font-style="normal" font-weight="normal" text-anchor="middle" textLength="36">_spawn</text></svg>