<svg xmlns="http://www.w3.org/2000/svg" xmlns:ev="http://www.w3.org/2001/xml-events" xmlns:xlink="http://www.w3.org/1999/xlink" width="756.545" height="476.289" class="st16" color-interpolation-filters="sRGB" viewBox="0 0 567.409 357.217" xml:space="preserve"><style type="text/css">.st1{fill:#dde2cd;stroke:#000;stroke-linecap:round;stroke-linejoin:round;stroke-width:.24}.st2{fill:#000;font-family:Arial;font-size:1.16666em}.st3{font-size:1em}.st4{stroke:#000;stroke-linecap:round;stroke-linejoin:round;stroke-width:.25}.st5{fill:#fff;stroke:none;stroke-linecap:butt;stroke-width:7.2}.st6{fill:#000;font-family:Arial;font-size:.666664em}.st7{fill:#fff;stroke:#000;stroke-linecap:round;stroke-linejoin:round;stroke-width:.24}.st8{fill:#000;font-family:Arial;font-size:1.00001em}.st9{fill:none;stroke:none;stroke-linecap:round;stroke-linejoin:round;stroke-width:.75}.st10{fill:#000;font-family:Calibri;font-size:.833336em}.st11{fill:#4677bf}.st12{stroke-linecap:round;stroke-linejoin:round;stroke-width:.72}.st12,.st13,.st14{stroke:#4677bf}.st13{marker-end:url(#mrkr10-82);marker-start:url(#mrkr10-80);stroke-linecap:round;stroke-linejoin:round;stroke-width:.72}.st14{fill:#4677bf;fill-opacity:1;stroke-opacity:1;stroke-width:.22222222222222}.st15{fill:#000;font-family:Calibri;font-size:.666664em}.st16{fill:none;fill-rule:evenodd;font-size:12;overflow:visible;stroke-linecap:square;stroke-miterlimit:3}</style><defs id="Markers"><g id="lend10"><path d="M 0 0.75 C -0.414214 0.75 -0.75 0.414214 -0.75 0 -0.75 -0.414214 -0.414214 -0.75 0 -0.75 0.414214 -0.75 0.75 -0.414214 0.75 0 0.75 0.414214 0.414214 0.75 0 0.75 Z" style="stroke:none"/></g><marker id="mrkr10-80" class="st14" markerUnits="strokeWidth" orient="auto" refX="2.875"><use transform="scale(4.5)" xlink:href="#lend10"/></marker><marker id="mrkr10-82" class="st14" markerUnits="strokeWidth" orient="auto" refX="-3.375"><use transform="scale(-4.5,-4.5)" xlink:href="#lend10"/></marker></defs><g><title>Page-1</title><g id="shape1-1" transform="translate(453.783,-16.819)"><title>Box.8</title><desc>Compute</desc><rect width="113.386" height="56.693" x="0" y="300.524" class="st1"/><text x="28.29" y="333.07" class="st2">Compute</text></g><g id="shape2-4" transform="translate(453.783,-300.284)"><title>Box.2</title><desc>Volume Storage</desc><rect width="113.386" height="56.693" x="0" y="300.524" class="st1"/><text x="32.96" y="324.67" class="st2">Volume<tspan x="32.18" class="st3" dy="1.2em">Storage</tspan></text></g><g id="shape3-8" transform="translate(269.531,-300.284)"><title>Box</title><desc>Auth Manager</desc><rect width="113.386" height="56.693" x="0" y="300.524" class="st1"/><text x="12.72" y="333.07" class="st2">Auth Manager</text></g><g id="shape4-11" transform="translate(269.531,-158.551)"><title>Box.4</title><desc>Cloud Controller</desc><rect width="113.386" height="56.693" x="0" y="300.524" class="st1"/><text x="38.4" y="324.67" class="st2">Cloud<tspan x="26.35" class="st3" dy="1.2em">Controller</tspan></text></g><g id="shape5-15" transform="translate(99.4526,-158.551)"><title>Box.3</title><desc>API Server</desc><rect width="113.386" height="56.693" x="0" y="300.524" class="st1"/><text x="22.85" y="333.07" class="st2">API Server</text></g><g id="shape6-18" transform="translate(269.531,-2.64582)"><title>Box.6</title><desc>Object Store</desc><rect width="113.386" height="56.693" x="0" y="300.524" class="st1"/><text x="36.46" y="324.67" class="st2">Object<tspan x="39.96" class="st3" dy="1.2em">Store</tspan></text></g><g id="shape7-22" transform="translate(439.61,-2.64582)"><title>Box.7</title><desc>Node Controller</desc><rect width="113.386" height="56.693" x="0" y="300.524" class="st1"/><text x="39.96" y="324.67" class="st2">Node<tspan x="26.35" class="st3" dy="1.2em">Controller</tspan></text></g><g id="shape8-26" transform="translate(319.138,-300.284)"><title>Dynamic connector</title><path d="M7.09 357.22 L7.09 442.26" class="st4"/></g><g id="shape9-29" transform="translate(212.838,-179.811)"><title>Dynamic connector.11</title><path d="M0 350.13 L56.69 350.13" class="st4"/></g><g id="shape10-32" transform="translate(319.138,-158.551)"><title>Dynamic connector.12</title><desc>http</desc><path d="M7.09 357.22 L7.09 456.43" class="st4"/><rect width="13.343" height="9.6" x=".415" y="402.023" class="st5"/><text x=".41" y="409.22" class="st6">http</text></g><g id="shape11-37" transform="translate(0.24,-314.457)"><title>Circle</title><desc>Nova-Manage</desc><path d="M0 343.04 A42.5197 14.1732 0 0 1 85.04 343.04 A42.5197 14.1732 0 0 1 0 343.04 Z" class="st7"/><text x="4.83" y="346.64" class="st8">Nova-Manage</text></g><g id="shape12-40" transform="translate(0.24,-101.858)"><title>Circle.15</title><desc>Euca2ools</desc><path d="M0 343.04 A42.5197 14.1732 0 0 1 85.04 343.04 A42.5197 14.1732 0 0 1 0 343.04 Z" class="st7"/><text x="14.5" y="346.64" class="st8">Euca2ools</text></g><g id="shape13-43" transform="translate(85.2794,-321.543)"><title>Dynamic connector.16</title><path d="M0 350.13 L184.25 350.13" class="st4"/></g><g id="shape14-46" transform="translate(42.7597,-130.205)"><title>Dynamic connector.17</title><path d="M0 357.22 L0 300.52 L56.69 300.52" class="st4"/></g><g id="shape15-49" transform="translate(22.8857,-254.929)"><title>Sheet.15</title><desc>Project User Role Network VPN</desc><rect width="62.394" height="34.016" x="0" y="323.201" class="st9"/><text x="4" y="319.21" class="st10">Project<tspan x="4" class="st3" dy="1.2em">User</tspan><tspan x="4" class="st3" dy="1.2em">Role</tspan><tspan x="4" class="st3" dy="1.2em">Network</tspan><tspan x="4" class="st3" dy="1.2em">VPN</tspan></text></g><g id="shape16-56" transform="translate(14.4132,-30.9923)"><title>Sheet.16</title><desc>VM instance Security group Volume Snapshot VM image IP address...</desc><rect width="85.039" height="34.016" x="0" y="323.201" class="st9"/><text x="4" y="301.21" class="st10">VM instance<tspan x="4" class="st3" dy="1.2em">Security group</tspan><tspan x="4" class="st3" dy="1.2em">Volume</tspan><tspan x="4" class="st3" dy="1.2em">Snapshot</tspan><tspan x="4" class="st3" dy="1.2em">VM image</tspan><tspan x="4" class="st3" dy="1.2em">IP address</tspan><tspan x="4" class="st3" dy="1.2em">SSH key</tspan><tspan x="4" class="st3" dy="1.2em">Availability zone</tspan></text></g><g id="shape17-66" transform="translate(439.61,-158.551)"><title>Box.20</title><desc>Network Controller</desc><rect width="113.386" height="56.693" x="0" y="300.524" class="st1"/><text x="31.02" y="324.67" class="st2">Network <tspan x="26.35" class="st3" dy="1.2em">Controller</tspan></text></g><g id="shape18-70" transform="translate(439.61,-286.11)"><title>Box.5</title><desc>Storage Controller</desc><rect width="113.386" height="56.693" x="0" y="300.524" class="st1"/><text x="32.18" y="324.67" class="st2">Storage <tspan x="26.35" class="st3" dy="1.2em">Controller</tspan></text></g><g id="shape19-74" transform="translate(718.627,48.2425) rotate(70.0169)"><title>Dot &amp; arrow</title><path d="M-4.25 357.22 A4.25197 4.25197 -180 1 0 4.25 357.22 A4.25197 4.25197 -180 0 0 -4.25 357.22 ZM157.39 352.96 L157.39 361.47 L165.89 357.22 L157.39 352.96 Z" class="st11"/><path d="M-4.25 357.22 A4.25197 4.25197 -180 1 0 4.25 357.22 A4.25197 4.25197 -180 0 0 -4.25 357.22" class="st12"/><path d="M157.39 352.96 L157.39 361.47 L165.89 357.22 L157.39 352.96" class="st12"/><path d="M6.32 357.22 L6.68 357.22 L154.96 357.22" class="st13"/></g><g id="shape20-85" transform="translate(56.4886,25.2394) rotate(-66.0375)"><title>Dot &amp; arrow.14</title><path d="M-4.25 357.22 A4.25197 4.25197 -180 1 0 4.25 357.22 A4.25197 4.25197 -180 0 0 -4.25 357.22 ZM131.09 352.96 L131.09 361.47 L139.59 357.22 L131.09 352.96 Z" class="st11"/><path d="M-4.25 357.22 A4.25197 4.25197 -180 1 0 4.25 357.22 A4.25197 4.25197 -180 0 0 -4.25 357.22" class="st12"/><path d="M131.09 352.96 L131.09 361.47 L139.59 357.22 L131.09 352.96" class="st12"/><path d="M6.32 357.22 L6.68 357.22 L128.66 357.22" class="st13"/></g><g id="shape21-94" transform="translate(382.917,-179.811)"><title>Dynamic connector.13</title><path d="M0 350.13 L56.69 350.13" class="st4"/></g><g id="shape22-97" transform="translate(386.681,-128.378)"><title>Sheet.22</title><desc>AMQP</desc><rect width="49.165" height="16" x="0" y="341.217" class="st9"/><text x="14.09" y="351.62" class="st15">AMQP</text></g><g id="shape23-100" transform="translate(383.492,-243.591)"><title>Sheet.23</title><desc>AMQP</desc><rect width="55.543" height="16" x="0" y="341.217" class="st9"/><text x="17.28" y="351.62" class="st15">AMQP</text></g><g id="shape24-103" transform="translate(390.445,-178.898)"><title>Sheet.24</title><desc>AMQP</desc><rect width="49.165" height="16" x="0" y="341.217" class="st9"/><text x="14.09" y="351.62" class="st15">AMQP</text></g><g id="shape25-106" transform="translate(28.5865,-185.071)"><title>Sheet.25</title><desc>REST</desc><rect width="55.543" height="16" x="0" y="341.217" class="st9"/><text x="19.86" y="351.62" class="st15">REST</text></g><g id="shape26-109" transform="translate(156.146,-328.63)"><title>Sheet.26</title><desc>local method</desc><rect width="55.543" height="16" x="0" y="341.217" class="st9"/><text x="6.48" y="351.62" class="st15">local method</text></g><g id="shape27-112" transform="translate(297.878,-243.591)"><title>Sheet.27</title><desc>local method</desc><rect width="55.543" height="16" x="0" y="341.217" class="st9"/><text x="6.48" y="351.62" class="st15">local method</text></g><g id="shape28-115" transform="translate(213.988,-185.071)"><title>Sheet.28</title><desc>local method</desc><rect width="55.543" height="16" x="0" y="341.217" class="st9"/><text x="6.48" y="351.62" class="st15">local method</text></g></g></svg>