<svg xmlns="http://www.w3.org/2000/svg" xmlns:ev="http://www.w3.org/2001/xml-events" xmlns:xlink="http://www.w3.org/1999/xlink" width="915.932" height="373.057" class="st21" color-interpolation-filters="sRGB" viewBox="0 0 686.949 279.793" xml:space="preserve"><style type="text/css">.st1{fill:#e8eef7;stroke:#000;stroke-linecap:round;stroke-linejoin:round;stroke-width:.24}.st2,.st3{stroke-width:.72}.st2{fill:#f0f;fill-opacity:0;stroke:#000;stroke-linecap:round;stroke-linejoin:round;stroke-opacity:0}.st3{fill:url(#grad31-9);stroke:#fff}.st3,.st4,.st5,.st6,.st7{stroke-linecap:round;stroke-linejoin:round}.st4{fill:url(#grad30-15);stroke:#fff;stroke-width:.72}.st5,.st6,.st7{stroke:#000}.st5{fill:url(#grad32-19);stroke-width:.72}.st6{stroke-width:1.5}.st7{fill:red;stroke-width:.24}.st8{fill:#000;font-family:Calibri;font-size:1.00001em}.st9{font-size:1em}.st10,.st11{stroke:#000;stroke-linecap:round;stroke-linejoin:round}.st10{fill:#fff;stroke-width:.24}.st11{marker-start:url(#mrkr13-65);stroke-width:.75}.st12{fill:#000;fill-opacity:1;stroke:#000;stroke-opacity:1;stroke-width:.22935779816514}.st13{fill:none;stroke:none;stroke-width:.75}.st13,.st14,.st15{stroke-linecap:round;stroke-linejoin:round}.st14{marker-end:url(#mrkr13-77);stroke:#000;stroke-width:.75}.st15{marker-end:url(#mrkr1-91)}.st15,.st16{stroke:#000;stroke-width:.75}.st16,.st17,.st18{stroke-linecap:round;stroke-linejoin:round}.st17{fill:none;stroke:#000;stroke-dasharray:3.6,2.16;stroke-width:.24}.st18{fill:#d8d8d8;stroke:#c00000;stroke-width:1.5}.st19{fill:#000;font-family:Calibri;font-size:1.5em}.st20{font-size:.666672em}.st21{fill:none;fill-rule:evenodd;font-size:12;overflow:visible;stroke-linecap:square;stroke-miterlimit:3}</style><defs id="Patterns_And_Gradients"><pattern id="grad31-9" width="1" height="1" x="0" y="0" patternContentUnits="objectBoundingBox"><path d="M 0 0 L 0 1 L 1 1 z" style="fill:url(#grad28-10)"/><path d="M 0 0 L 1 0 L 1 1 z" style="fill:url(#grad25-11)"/></pattern><linearGradient id="grad28-10" x1="0" x2="0" y1="0" y2="1"><stop offset="0" style="stop-color:#fff;stop-opacity:1"/><stop offset="1" style="stop-color:#a7a7a7;stop-opacity:1"/></linearGradient><linearGradient id="grad25-11" x1="0" x2="1" y1="0" y2="0"><stop offset="0" style="stop-color:#fff;stop-opacity:1"/><stop offset="1" style="stop-color:#a7a7a7;stop-opacity:1"/></linearGradient><linearGradient id="grad30-15" x1="0" x2="0" y1="1" y2="0"><stop offset="0" style="stop-color:#fff;stop-opacity:1"/><stop offset="1" style="stop-color:#dfdfdf;stop-opacity:1"/></linearGradient><pattern id="grad32-19" width="1" height="1" x="0" y="0" patternContentUnits="objectBoundingBox"><path d="M 0 1 L 0 0 L 1 0 z" style="fill:url(#grad27-20)"/><path d="M 0 1 L 1 1 L 1 0 z" style="fill:url(#grad28-21)"/></pattern><linearGradient id="grad27-20" x1="1" x2="0" y1="0" y2="0"><stop offset="0" style="stop-color:#fff;stop-opacity:1"/><stop offset="1" style="stop-color:silver;stop-opacity:1"/></linearGradient><linearGradient id="grad28-21" x1="0" x2="0" y1="0" y2="1"><stop offset="0" style="stop-color:#fff;stop-opacity:1"/><stop offset="1" style="stop-color:silver;stop-opacity:1"/></linearGradient></defs><defs id="Markers"><g id="lend13"><path d="M 3 1 L 0 0 L 3 -1 L 3 1" style="stroke:none"/></g><marker id="mrkr13-65" class="st12" markerUnits="strokeWidth" orient="auto" refX="12.6"><use transform="scale(4.36)" xlink:href="#lend13"/></marker><marker id="mrkr13-77" class="st12" markerUnits="strokeWidth" orient="auto" refX="-13.08"><use transform="scale(-4.36,-4.36)" xlink:href="#lend13"/></marker><g id="lend1"><path d="M 1 -1 L 0 0 L 1 1" style="stroke-linecap:round;stroke-linejoin:round;fill:none"/></g><marker id="mrkr1-91" class="st12" markerUnits="strokeWidth" orient="auto"><use transform="scale(-4.36,-4.36)" xlink:href="#lend1"/></marker></defs><g><title>Page-1</title><g id="shape1-1" transform="translate(185.002,-44.2771)"><title>Rounded rectangle</title><path d="M297.64 279.79 A14.1733 14.1733 -180 0 0 311.81 265.62 L311.81 58.69 A14.1733 14.1733 -180 0 0 297.64 44.52 L14.17 44.52 A14.1733 14.1733 -180 0 0 -0 58.69 L0 265.62 A14.1733 14.1733 -180 0 0 14.17 279.79 L297.64 279.79 Z" class="st1"/></g><g id="group2-3" transform="translate(241.695,-183.175)"><title>ATM switch</title><desc>name: control_exchange (type: topic)</desc><g id="shape3-4" transform="translate(-0.359055,0)"><title>Sheet.3</title><path d="M28.35 279.79 L42.52 271.61 L42.52 239.47 L14.17 223.1 L0 231.28 L0 263.43 L28.35 279.79 Z" class="st2"/></g><g id="shape4-6" transform="translate(28.1575,-0.0944882)"><title>Sheet.4</title><path d="M0 247.65 L0 279.79 L14.17 271.61 L14.17 239.47 L0 247.65 Z" class="st3"/></g><g id="shape5-12" transform="translate(-0.188976,-32.2386)"><title>Sheet.5</title><path d="M0 263.43 L28.35 279.79 L42.52 271.61 L14.17 255.24 L0 263.43 Z" class="st4"/></g><g id="shape6-16" transform="translate(-0.188976,-0.0944882)"><title>Sheet.6</title><path d="M0 263.43 L28.35 279.79 L28.35 247.65 L0 231.28 L0 263.43 Z" class="st5"/></g><g id="shape7-22" transform="translate(-0.188976,-0.0944882)"><title>Sheet.7</title><path d="M0 231.28 L0 263.43 L28.35 279.79 L42.52 271.61 L42.52 239.47 L14.17 223.1 L0 231.28" class="st6"/></g><g id="shape8-25" transform="translate(1.88976,-6.80315)"><title>Sheet.8</title><path d="M4.05 244.46 L0 246.76 L4.05 253.74 L4.05 250.02 L7.09 251.78 L11.14 261.54 L7.09 266.63 L4.05 264.87 L4.05 261.16 L0 263.46 L4.05 270.44 L4.05 266.73 A59.6713 55.5985 -178.23 0 0 8.1 269.07 L12.15 263.98 L16.2 273.74 L20.25 276.08 L20.25 279.79 L24.3 277.49 L20.25 270.51 L20.25 274.22 L17.21 272.47 L13.16 262.71 L17.21 257.62 L20.25 259.38 L20.25 263.09 L24.3 260.79 L20.25 253.81 L20.25 257.52 L16.2 255.18 A89.6201 83.5031 -177.36 0 0 12.15 260.27 L8.1 250.51 L4.05 248.17 L4.05 244.46 Z" class="st7"/></g><g id="shape2-27"><text x="-39.1" y="294.59" class="st8">name: control_exchange<tspan x="-8.44" class="st9" dy="1.2em">(</tspan>type: topic)</text></g></g><g id="group17-30" transform="translate(403.27,-225.694)"><title>Sheet.17</title><g id="shape18-31"><title>Rectangle</title><rect width="8.504" height="34.016" x="0" y="245.777" class="st10"/></g><g id="shape19-33" transform="translate(8.50394,-5.68434E-014)"><title>Rectangle.10</title><rect width="8.504" height="34.016" x="0" y="245.777" class="st10"/></g><g id="shape20-35" transform="translate(17.0079,-5.68434E-014)"><title>Rectangle.11</title><rect width="8.504" height="34.016" x="0" y="245.777" class="st10"/></g><g id="shape21-37" transform="translate(25.5118,-5.68434E-014)"><title>Rectangle.12</title><rect width="8.504" height="34.016" x="0" y="245.777" class="st10"/></g><g id="shape22-39" transform="translate(34.0157,-5.68434E-014)"><title>Rectangle.13</title><rect width="8.504" height="34.016" x="0" y="245.777" class="st10"/></g><g id="shape23-41" transform="translate(42.5197,-5.68434E-014)"><title>Rectangle.14</title><rect width="8.504" height="34.016" x="0" y="245.777" class="st10"/></g><g id="shape24-43" transform="translate(51.0236,-5.68434E-014)"><title>Rectangle.15</title><rect width="8.504" height="34.016" x="0" y="245.777" class="st10"/></g></g><g id="group9-45" transform="translate(403.27,-160.498)"><title>Sheet.9</title><g id="shape10-46"><title>Rectangle</title><rect width="8.504" height="34.016" x="0" y="245.777" class="st10"/></g><g id="shape11-48" transform="translate(8.50394,-5.68434E-014)"><title>Rectangle.10</title><rect width="8.504" height="34.016" x="0" y="245.777" class="st10"/></g><g id="shape12-50" transform="translate(17.0079,-5.68434E-014)"><title>Rectangle.11</title><rect width="8.504" height="34.016" x="0" y="245.777" class="st10"/></g><g id="shape13-52" transform="translate(25.5118,-5.68434E-014)"><title>Rectangle.12</title><rect width="8.504" height="34.016" x="0" y="245.777" class="st10"/></g><g id="shape14-54" transform="translate(34.0157,-5.68434E-014)"><title>Rectangle.13</title><rect width="8.504" height="34.016" x="0" y="245.777" class="st10"/></g><g id="shape15-56" transform="translate(42.5197,-5.68434E-014)"><title>Rectangle.14</title><rect width="8.504" height="34.016" x="0" y="245.777" class="st10"/></g><g id="shape16-58" transform="translate(51.0236,-5.68434E-014)"><title>Rectangle.15</title><rect width="8.504" height="34.016" x="0" y="245.777" class="st10"/></g></g><g id="shape25-60" transform="translate(298.388,-214.356)"><title>Sheet.25</title><path d="M9.45 279.79 L9.81 279.79 L56.69 279.79 L56.69 251.45 L96.38 251.45 L104.88 251.45" class="st11"/></g><g id="shape27-66" transform="translate(383.427,-210.104)"><title>Sheet.27</title><desc>key: topic</desc><rect width="99.213" height="14.173" x="0" y="265.62" class="st13"/><text x="25.98" y="276.31" class="st8">key: topic</text></g><g id="shape28-69" transform="translate(391.931,-140.498)"><title>Sheet.28</title><desc>key: topic.host</desc><rect width="82.205" height="20" x="0" y="259.793" class="st13"/><text x="5.28" y="273.39" class="st8">key: topic.host</text></g><g id="shape26-72" transform="translate(298.388,-177.505)"><title>Sheet.26</title><path d="M96.38 279.79 L56.69 279.79 L56.69 251.45 L9.81 251.45" class="st14"/></g><g id="shape29-78" transform="translate(567.679,-221.442)"><title>Rectangle</title><desc>Topic Consumer</desc><rect width="85.039" height="42.52" x="0" y="237.273" class="st1"/><text x="29.37" y="254.93" class="st8">Topic <tspan x="17.63" class="st9" dy="1.2em">Consumer</tspan></text></g><g id="shape30-82" transform="translate(567.679,-156.246)"><title>Rectangle.30</title><desc>Topic Consumer</desc><rect width="85.039" height="42.52" x="0" y="237.273" class="st1"/><text x="29.37" y="254.93" class="st8">Topic <tspan x="17.63" class="st9" dy="1.2em">Consumer</tspan></text></g><g id="shape31-86" transform="translate(462.797,-242.702)"><title>Sheet.31</title><path d="M0 279.79 L104.88 279.79" class="st15"/></g><g id="shape32-92" transform="translate(462.797,-177.505)"><title>Sheet.32</title><path d="M0 279.79 L104.88 279.79" class="st15"/></g><g id="shape33-97" transform="translate(394.766,-177.505)"><title>Sheet.33</title><path d="M0 279.79 L8.5 279.79" class="st16"/></g><g id="shape34-100" transform="translate(553.506,-72.6236)"><title>Rectangle.34</title><path d="M0 279.79 L113.39 279.79 L113.39 78.53 L0 78.53 L0 279.79 Z" class="st17"/></g><g id="shape35-102" transform="translate(567.679,-83.9622)"><title>Rectangle.35</title><desc>Direct Publisher</desc><rect width="85.039" height="42.52" x="0" y="237.273" class="st18"/><text x="27.83" y="254.93" class="st8">Direct<tspan x="19.79" class="st9" dy="1.2em">Publisher</tspan></text></g><g id="shape36-106" transform="translate(534.199,-45.6157)"><title>Sheet.36</title><desc>Worker (e.g. compute)</desc><rect width="152" height="20" x="0" y="259.793" class="st13"/><text x="57.6" y="266.19" class="st8">Worker<tspan x="40.37" class="st9" dy="1.2em">(</tspan>e.g. compute)</text></g><g id="group37-110" transform="translate(410.356,-81.1275)"><title>ATM switch.37</title><desc>name: msg_id (type: direct)</desc><g id="shape38-111" transform="translate(-0.359055,0)"><title>Sheet.38</title><path d="M28.35 279.79 L42.52 271.61 L42.52 239.47 L14.17 223.1 L0 231.28 L0 263.43 L28.35 279.79 Z" class="st2"/></g><g id="shape39-113" transform="translate(28.1575,-0.0944882)"><title>Sheet.39</title><path d="M0 247.65 L0 279.79 L14.17 271.61 L14.17 239.47 L0 247.65 Z" class="st3"/></g><g id="shape40-116" transform="translate(-0.188976,-32.2386)"><title>Sheet.40</title><path d="M0 263.43 L28.35 279.79 L42.52 271.61 L14.17 255.24 L0 263.43 Z" class="st4"/></g><g id="shape41-119" transform="translate(-0.188976,-0.0944882)"><title>Sheet.41</title><path d="M0 263.43 L28.35 279.79 L28.35 247.65 L0 231.28 L0 263.43 Z" class="st5"/></g><g id="shape42-122" transform="translate(-0.188976,-0.0944882)"><title>Sheet.42</title><path d="M0 231.28 L0 263.43 L28.35 279.79 L42.52 271.61 L42.52 239.47 L14.17 223.1 L0 231.28" class="st6"/></g><g id="shape43-125" transform="translate(1.88976,-6.80315)"><title>Sheet.43</title><path d="M4.05 244.46 L0 246.76 L4.05 253.74 L4.05 250.02 L7.09 251.78 L11.14 261.54 L7.09 266.63 L4.05 264.87 L4.05 261.16 L0 263.46 L4.05 270.44 L4.05 266.73 A59.6713 55.5985 -178.23 0 0 8.1 269.07 L12.15 263.98 L16.2 273.74 L20.25 276.08 L20.25 279.79 L24.3 277.49 L20.25 270.51 L20.25 274.22 L17.21 272.47 L13.16 262.71 L17.21 257.62 L20.25 259.38 L20.25 263.09 L24.3 260.79 L20.25 253.81 L20.25 257.52 L16.2 255.18 A89.6201 83.5031 -177.36 0 0 12.15 260.27 L8.1 250.51 L4.05 248.17 L4.05 244.46 Z" class="st7"/></g><g id="shape37-127"><text x="-12.99" y="294.59" class="st8">name: msg_id<tspan x="-10.36" class="st9" dy="1.2em">(</tspan>type: direct)</text></g></g><g id="group44-130" transform="translate(236.026,-89.6315)"><title>Sheet.44</title><g id="shape45-131"><title>Rectangle</title><rect width="8.504" height="34.016" x="0" y="245.777" class="st10"/></g><g id="shape46-133" transform="translate(8.50394,-5.68434E-014)"><title>Rectangle.10</title><rect width="8.504" height="34.016" x="0" y="245.777" class="st10"/></g><g id="shape47-135" transform="translate(17.0079,-5.68434E-014)"><title>Rectangle.11</title><rect width="8.504" height="34.016" x="0" y="245.777" class="st10"/></g><g id="shape48-137" transform="translate(25.5118,-5.68434E-014)"><title>Rectangle.12</title><rect width="8.504" height="34.016" x="0" y="245.777" class="st10"/></g><g id="shape49-139" transform="translate(34.0157,-5.68434E-014)"><title>Rectangle.13</title><rect width="8.504" height="34.016" x="0" y="245.777" class="st10"/></g><g id="shape50-141" transform="translate(42.5197,-5.68434E-014)"><title>Rectangle.14</title><rect width="8.504" height="34.016" x="0" y="245.777" class="st10"/></g><g id="shape51-143" transform="translate(51.0236,-5.68434E-014)"><title>Rectangle.15</title><rect width="8.504" height="34.016" x="0" y="245.777" class="st10"/></g></g><g id="shape52-145" transform="translate(216.183,-75.4582)"><title>Sheet.52</title><desc>key: msg_id</desc><rect width="99.213" height="14.173" x="0" y="265.62" class="st13"/><text x="20.73" y="276.31" class="st8">key: msg_id</text></g><g id="shape53-148" transform="translate(295.553,-106.639)"><title>Sheet.53</title><path d="M0 279.79 L97.91 279.79" class="st14"/></g><g id="shape54-153" transform="translate(567.679,454.363) rotate(180)"><title>Sheet.54</title><path d="M0 279.79 L104.88 279.79" class="st15"/></g><g id="shape57-158" transform="translate(20.0571,-72.6236)"><title>Rectangle.57</title><path d="M0 279.79 L113.39 279.79 L113.39 101.21 L0 101.21 L0 279.79 Z" class="st17"/></g><g id="shape58-160" transform="translate(34.2303,-85.3795)"><title>Rectangle.58</title><desc>Direct Consumer</desc><rect width="85.039" height="42.52" x="0" y="237.273" class="st18"/><text x="27.83" y="254.93" class="st8">Direct<tspan x="17.63" class="st9" dy="1.2em">Consumer</tspan></text></g><g id="shape59-164" transform="translate(0.75,-47.1118)"><title>Sheet.59</title><desc>Invoker (e.g. api)</desc><rect width="152" height="20" x="0" y="259.793" class="st13"/><text x="57.66" y="266.19" class="st8">Invoker<tspan x="54.76" class="st9" dy="1.2em">(</tspan>e.g. api)</text></g><g id="shape55-168" transform="translate(34.2303,-195.931)"><title>Rectangle.55</title><desc>Topic Publisher</desc><rect width="85.039" height="42.52" x="0" y="237.273" class="st18"/><text x="29.37" y="254.93" class="st8">Topic <tspan x="19.79" class="st9" dy="1.2em">Publisher</tspan></text></g><g id="shape56-172" transform="translate(119.27,-217.191)"><title>Sheet.56</title><path d="M0 279.79 L113.92 279.79" class="st15"/></g><g id="shape60-177" transform="translate(236.026,452.946) rotate(180)"><title>Sheet.60</title><path d="M0 279.79 L116.76 279.79" class="st15"/></g><g id="shape62-182" transform="translate(273.947,-11.6)"><title>Sheet.62</title><desc>RabbitMQ Node (single virtual host context)</desc><rect width="152" height="20" x="0" y="259.793" class="st13"/><text x="16.72" y="264.39" class="st19">RabbitMQ Node<tspan x="9.51" class="st20" dy="1.8em">(</tspan><tspan class="st20">single virtual host context</tspan><tspan class="st20">)</tspan></text></g></g></svg>