<svg xmlns="http://www.w3.org/2000/svg" xmlns:ev="http://www.w3.org/2001/xml-events" xmlns:xlink="http://www.w3.org/1999/xlink" width="999.293" height="345.534" class="st23" color-interpolation-filters="sRGB" viewBox="0 0 749.472 259.15" xml:space="preserve"><style type="text/css">.st1{fill:#e8eef7;stroke:#000;stroke-linecap:round;stroke-linejoin:round;stroke-width:.24}.st2,.st3{stroke-width:.72}.st2{fill:#f0f;fill-opacity:0;stroke:#000;stroke-linecap:round;stroke-linejoin:round;stroke-opacity:0}.st3{fill:url(#grad31-9);stroke:#fff}.st3,.st4,.st5,.st6,.st7{stroke-linecap:round;stroke-linejoin:round}.st4{fill:url(#grad30-15);stroke:#fff;stroke-width:.72}.st5,.st6,.st7{stroke:#000}.st5{fill:url(#grad32-19);stroke-width:.72}.st6{stroke-width:1.5}.st7{fill:red;stroke-width:.24}.st8{fill:#000;font-family:Calibri;font-size:1.00001em}.st9{font-size:1em}.st10,.st11{stroke:#000;stroke-linecap:round;stroke-linejoin:round}.st10{fill:#fff;stroke-width:.24}.st11{marker-start:url(#mrkr13-65);stroke-width:.75}.st12{fill:#000;fill-opacity:1;stroke:#000;stroke-opacity:1;stroke-width:.22935779816514}.st13{fill:none;stroke:none;stroke-width:.75}.st13,.st14,.st15{stroke-linecap:round;stroke-linejoin:round}.st14{marker-end:url(#mrkr13-77);stroke:#000;stroke-width:.75}.st15{marker-end:url(#mrkr1-91)}.st15,.st16{stroke:#000;stroke-width:.75}.st16,.st17,.st18{stroke-linecap:round;stroke-linejoin:round}.st17{fill:none;stroke:#000;stroke-dasharray:3.6,2.16;stroke-width:.24}.st18{fill:#d8d8d8;stroke:#c00000;stroke-width:1.5}.st19{fill:#000;font-family:Calibri;font-size:1.5em}.st20{marker-end:url(#mrkr13-190);stroke:red;stroke-linecap:round;stroke-linejoin:round;stroke-width:2.25}.st21{fill:red;fill-opacity:1;stroke:red;stroke-opacity:1;stroke-width:.47169811320755}.st22{marker-start:url(#mrkr13-205);stroke:red;stroke-linecap:round;stroke-linejoin:round;stroke-width:2.25}.st23{fill:none;fill-rule:evenodd;font-size:12;overflow:visible;stroke-linecap:square;stroke-miterlimit:3}</style><defs id="Patterns_And_Gradients"><pattern id="grad31-9" width="1" height="1" x="0" y="0" patternContentUnits="objectBoundingBox"><path d="M 0 0 L 0 1 L 1 1 z" style="fill:url(#grad28-10)"/><path d="M 0 0 L 1 0 L 1 1 z" style="fill:url(#grad25-11)"/></pattern><linearGradient id="grad28-10" x1="0" x2="0" y1="0" y2="1"><stop offset="0" style="stop-color:#fff;stop-opacity:1"/><stop offset="1" style="stop-color:#a7a7a7;stop-opacity:1"/></linearGradient><linearGradient id="grad25-11" x1="0" x2="1" y1="0" y2="0"><stop offset="0" style="stop-color:#fff;stop-opacity:1"/><stop offset="1" style="stop-color:#a7a7a7;stop-opacity:1"/></linearGradient><linearGradient id="grad30-15" x1="0" x2="0" y1="1" y2="0"><stop offset="0" style="stop-color:#fff;stop-opacity:1"/><stop offset="1" style="stop-color:#dfdfdf;stop-opacity:1"/></linearGradient><pattern id="grad32-19" width="1" height="1" x="0" y="0" patternContentUnits="objectBoundingBox"><path d="M 0 1 L 0 0 L 1 0 z" style="fill:url(#grad27-20)"/><path d="M 0 1 L 1 1 L 1 0 z" style="fill:url(#grad28-21)"/></pattern><linearGradient id="grad27-20" x1="1" x2="0" y1="0" y2="0"><stop offset="0" style="stop-color:#fff;stop-opacity:1"/><stop offset="1" style="stop-color:silver;stop-opacity:1"/></linearGradient><linearGradient id="grad28-21" x1="0" x2="0" y1="0" y2="1"><stop offset="0" style="stop-color:#fff;stop-opacity:1"/><stop offset="1" style="stop-color:silver;stop-opacity:1"/></linearGradient></defs><defs id="Markers"><g id="lend13"><path d="M 3 1 L 0 0 L 3 -1 L 3 1" style="stroke:none"/></g><marker id="mrkr13-65" class="st12" markerUnits="strokeWidth" orient="auto" refX="12.6"><use transform="scale(4.36)" xlink:href="#lend13"/></marker><marker id="mrkr13-77" class="st12" markerUnits="strokeWidth" orient="auto" refX="-13.08"><use transform="scale(-4.36,-4.36)" xlink:href="#lend13"/></marker><g id="lend1"><path d="M 1 -1 L 0 0 L 1 1" style="stroke-linecap:round;stroke-linejoin:round;fill:none"/></g><marker id="mrkr1-91" class="st12" markerUnits="strokeWidth" orient="auto"><use transform="scale(-4.36,-4.36)" xlink:href="#lend1"/></marker><marker id="mrkr13-190" class="st21" markerUnits="strokeWidth" orient="auto" refX="-6.36"><use transform="scale(-2.12,-2.12)" xlink:href="#lend13"/></marker><marker id="mrkr13-205" class="st21" markerUnits="strokeWidth" orient="auto" refX="6.2"><use transform="scale(2.12)" xlink:href="#lend13"/></marker></defs><g><title>Page-1</title><g id="shape1-1" transform="translate(247.525,-23.6348)"><title>Rounded rectangle</title><path d="M297.64 259.15 A14.1733 14.1733 -180 0 0 311.81 244.98 L311.81 38.05 A14.1733 14.1733 -180 0 0 297.64 23.87 L14.17 23.87 A14.1733 14.1733 -180 0 0 -0 38.05 L0 244.98 A14.1733 14.1733 -180 0 0 14.17 259.15 L297.64 259.15 Z" class="st1"/></g><g id="group2-3" transform="translate(304.218,-162.532)"><title>ATM switch</title><desc>name: control_exchange (type: topic)</desc><g id="shape3-4" transform="translate(-0.359055,0)"><title>Sheet.3</title><path d="M28.35 259.15 L42.52 250.97 L42.52 218.82 L14.17 202.46 L0 210.64 L0 242.78 L28.35 259.15 Z" class="st2"/></g><g id="shape4-6" transform="translate(28.1575,-0.0944882)"><title>Sheet.4</title><path d="M0 227.01 L0 259.15 L14.17 250.97 L14.17 218.82 L0 227.01 Z" class="st3"/></g><g id="shape5-12" transform="translate(-0.188976,-32.2386)"><title>Sheet.5</title><path d="M0 242.78 L28.35 259.15 L42.52 250.97 L14.17 234.6 L0 242.78 Z" class="st4"/></g><g id="shape6-16" transform="translate(-0.188976,-0.0944882)"><title>Sheet.6</title><path d="M0 242.78 L28.35 259.15 L28.35 227.01 L0 210.64 L0 242.78 Z" class="st5"/></g><g id="shape7-22" transform="translate(-0.188976,-0.0944882)"><title>Sheet.7</title><path d="M0 210.64 L0 242.78 L28.35 259.15 L42.52 250.97 L42.52 218.82 L14.17 202.46 L0 210.64" class="st6"/></g><g id="shape8-25" transform="translate(1.88976,-6.80315)"><title>Sheet.8</title><path d="M4.05 223.81 L0 226.12 L4.05 233.09 L4.05 229.38 L7.09 231.13 L11.14 240.9 L7.09 245.98 L4.05 244.23 L4.05 240.52 L0 242.82 L4.05 249.8 L4.05 246.09 A59.6713 55.5985 -178.23 0 0 8.1 248.42 L12.15 243.34 L16.2 253.1 L20.25 255.44 L20.25 259.15 L24.3 256.85 L20.25 249.87 L20.25 253.58 L17.21 251.83 L13.16 242.07 L17.21 236.98 L20.25 238.73 L20.25 242.45 L24.3 240.14 L20.25 233.16 L20.25 236.88 L16.2 234.54 A89.6201 83.5031 -177.36 0 0 12.15 239.63 L8.1 229.86 L4.05 227.53 L4.05 223.81 Z" class="st7"/></g><g id="shape2-27"><text x="-39.1" y="273.95" class="st8">name: control_exchange<tspan x="-8.44" class="st9" dy="1.2em">(</tspan>type: topic)</text></g></g><g id="group9-30" transform="translate(465.793,-205.052)"><title>Sheet.9</title><g id="shape10-31"><title>Rectangle</title><rect width="8.504" height="34.016" x="0" y="225.135" class="st10"/></g><g id="shape11-33" transform="translate(8.50394,-5.68434E-014)"><title>Rectangle.10</title><rect width="8.504" height="34.016" x="0" y="225.135" class="st10"/></g><g id="shape12-35" transform="translate(17.0079,-5.68434E-014)"><title>Rectangle.11</title><rect width="8.504" height="34.016" x="0" y="225.135" class="st10"/></g><g id="shape13-37" transform="translate(25.5118,-5.68434E-014)"><title>Rectangle.12</title><rect width="8.504" height="34.016" x="0" y="225.135" class="st10"/></g><g id="shape14-39" transform="translate(34.0157,-5.68434E-014)"><title>Rectangle.13</title><rect width="8.504" height="34.016" x="0" y="225.135" class="st10"/></g><g id="shape15-41" transform="translate(42.5197,-5.68434E-014)"><title>Rectangle.14</title><rect width="8.504" height="34.016" x="0" y="225.135" class="st10"/></g><g id="shape16-43" transform="translate(51.0236,-5.68434E-014)"><title>Rectangle.15</title><rect width="8.504" height="34.016" x="0" y="225.135" class="st10"/></g></g><g id="group17-45" transform="translate(465.793,-139.855)"><title>Sheet.17</title><g id="shape18-46"><title>Rectangle</title><rect width="8.504" height="34.016" x="0" y="225.135" class="st10"/></g><g id="shape19-48" transform="translate(8.50394,-5.68434E-014)"><title>Rectangle.10</title><rect width="8.504" height="34.016" x="0" y="225.135" class="st10"/></g><g id="shape20-50" transform="translate(17.0079,-5.68434E-014)"><title>Rectangle.11</title><rect width="8.504" height="34.016" x="0" y="225.135" class="st10"/></g><g id="shape21-52" transform="translate(25.5118,-5.68434E-014)"><title>Rectangle.12</title><rect width="8.504" height="34.016" x="0" y="225.135" class="st10"/></g><g id="shape22-54" transform="translate(34.0157,-5.68434E-014)"><title>Rectangle.13</title><rect width="8.504" height="34.016" x="0" y="225.135" class="st10"/></g><g id="shape23-56" transform="translate(42.5197,-5.68434E-014)"><title>Rectangle.14</title><rect width="8.504" height="34.016" x="0" y="225.135" class="st10"/></g><g id="shape24-58" transform="translate(51.0236,-5.68434E-014)"><title>Rectangle.15</title><rect width="8.504" height="34.016" x="0" y="225.135" class="st10"/></g></g><g id="shape25-60" transform="translate(360.911,-193.714)"><title>Sheet.25</title><path d="M9.45 259.15 L9.81 259.15 L56.69 259.15 L56.69 230.8 L96.38 230.8 L104.88 230.8" class="st11"/></g><g id="shape26-66" transform="translate(445.95,-189.462)"><title>Sheet.26</title><desc>key: topic</desc><rect width="99.213" height="14.173" x="0" y="244.977" class="st13"/><text x="25.98" y="255.66" class="st8">key: topic</text></g><g id="shape27-69" transform="translate(454.454,-119.855)"><title>Sheet.27</title><desc>key: topic.host</desc><rect width="82.205" height="20" x="0" y="239.15" class="st13"/><text x="5.28" y="252.75" class="st8">key: topic.host</text></g><g id="shape28-72" transform="translate(360.911,-156.863)"><title>Sheet.28</title><path d="M96.38 259.15 L56.69 259.15 L56.69 230.8 L9.81 230.8" class="st14"/></g><g id="shape29-78" transform="translate(630.202,-200.8)"><title>Rectangle</title><desc>Topic Consumer</desc><rect width="85.039" height="42.52" x="0" y="216.631" class="st1"/><text x="29.37" y="234.29" class="st8">Topic <tspan x="17.63" class="st9" dy="1.2em">Consumer</tspan></text></g><g id="shape30-82" transform="translate(630.202,-135.603)"><title>Rectangle.30</title><desc>Topic Consumer</desc><rect width="85.039" height="42.52" x="0" y="216.631" class="st1"/><text x="29.37" y="234.29" class="st8">Topic <tspan x="17.63" class="st9" dy="1.2em">Consumer</tspan></text></g><g id="shape31-86" transform="translate(525.32,-222.06)"><title>Sheet.31</title><path d="M0 259.15 L104.88 259.15" class="st15"/></g><g id="shape32-92" transform="translate(525.32,-156.863)"><title>Sheet.32</title><path d="M0 259.15 L104.88 259.15" class="st15"/></g><g id="shape33-97" transform="translate(457.289,-156.863)"><title>Sheet.33</title><path d="M0 259.15 L8.5 259.15" class="st16"/></g><g id="shape34-100" transform="translate(616.029,-51.9812)"><title>Rectangle.34</title><path d="M0 259.15 L113.39 259.15 L113.39 57.89 L0 57.89 L0 259.15 Z" class="st17"/></g><g id="shape35-102" transform="translate(630.202,-63.3198)"><title>Rectangle.35</title><desc>Direct Publisher</desc><rect width="85.039" height="42.52" x="0" y="216.631" class="st18"/><text x="27.83" y="234.29" class="st8">Direct<tspan x="19.79" class="st9" dy="1.2em">Publisher</tspan></text></g><g id="shape36-106" transform="translate(596.722,-24.9734)"><title>Sheet.36</title><desc>Worker (e.g. compute)</desc><rect width="152" height="20" x="0" y="239.15" class="st13"/><text x="57.6" y="245.55" class="st8">Worker<tspan x="40.37" class="st9" dy="1.2em">(</tspan>e.g. compute)</text></g><g id="group37-110" transform="translate(472.879,-60.4852)"><title>ATM switch.37</title><desc>name: msg_id (type: direct)</desc><g id="shape38-111" transform="translate(-0.359055,0)"><title>Sheet.38</title><path d="M28.35 259.15 L42.52 250.97 L42.52 218.82 L14.17 202.46 L0 210.64 L0 242.78 L28.35 259.15 Z" class="st2"/></g><g id="shape39-113" transform="translate(28.1575,-0.0944882)"><title>Sheet.39</title><path d="M0 227.01 L0 259.15 L14.17 250.97 L14.17 218.82 L0 227.01 Z" class="st3"/></g><g id="shape40-116" transform="translate(-0.188976,-32.2386)"><title>Sheet.40</title><path d="M0 242.78 L28.35 259.15 L42.52 250.97 L14.17 234.6 L0 242.78 Z" class="st4"/></g><g id="shape41-119" transform="translate(-0.188976,-0.0944882)"><title>Sheet.41</title><path d="M0 242.78 L28.35 259.15 L28.35 227.01 L0 210.64 L0 242.78 Z" class="st5"/></g><g id="shape42-122" transform="translate(-0.188976,-0.0944882)"><title>Sheet.42</title><path d="M0 210.64 L0 242.78 L28.35 259.15 L42.52 250.97 L42.52 218.82 L14.17 202.46 L0 210.64" class="st6"/></g><g id="shape43-125" transform="translate(1.88976,-6.80315)"><title>Sheet.43</title><path d="M4.05 223.81 L0 226.12 L4.05 233.09 L4.05 229.38 L7.09 231.13 L11.14 240.9 L7.09 245.98 L4.05 244.23 L4.05 240.52 L0 242.82 L4.05 249.8 L4.05 246.09 A59.6713 55.5985 -178.23 0 0 8.1 248.42 L12.15 243.34 L16.2 253.1 L20.25 255.44 L20.25 259.15 L24.3 256.85 L20.25 249.87 L20.25 253.58 L17.21 251.83 L13.16 242.07 L17.21 236.98 L20.25 238.73 L20.25 242.45 L24.3 240.14 L20.25 233.16 L20.25 236.88 L16.2 234.54 A89.6201 83.5031 -177.36 0 0 12.15 239.63 L8.1 229.86 L4.05 227.53 L4.05 223.81 Z" class="st7"/></g><g id="shape37-127"><text x="-12.99" y="273.95" class="st8">name: msg_id<tspan x="-10.36" class="st9" dy="1.2em">(</tspan>type: direct)</text></g></g><g id="group44-130" transform="translate(298.549,-68.9891)"><title>Sheet.44</title><g id="shape45-131"><title>Rectangle</title><rect width="8.504" height="34.016" x="0" y="225.135" class="st10"/></g><g id="shape46-133" transform="translate(8.50394,-5.68434E-014)"><title>Rectangle.10</title><rect width="8.504" height="34.016" x="0" y="225.135" class="st10"/></g><g id="shape47-135" transform="translate(17.0079,-5.68434E-014)"><title>Rectangle.11</title><rect width="8.504" height="34.016" x="0" y="225.135" class="st10"/></g><g id="shape48-137" transform="translate(25.5118,-5.68434E-014)"><title>Rectangle.12</title><rect width="8.504" height="34.016" x="0" y="225.135" class="st10"/></g><g id="shape49-139" transform="translate(34.0157,-5.68434E-014)"><title>Rectangle.13</title><rect width="8.504" height="34.016" x="0" y="225.135" class="st10"/></g><g id="shape50-141" transform="translate(42.5197,-5.68434E-014)"><title>Rectangle.14</title><rect width="8.504" height="34.016" x="0" y="225.135" class="st10"/></g><g id="shape51-143" transform="translate(51.0236,-5.68434E-014)"><title>Rectangle.15</title><rect width="8.504" height="34.016" x="0" y="225.135" class="st10"/></g></g><g id="shape52-145" transform="translate(278.706,-54.8159)"><title>Sheet.52</title><desc>key: msg_id</desc><rect width="99.213" height="14.173" x="0" y="244.977" class="st13"/><text x="20.73" y="255.66" class="st8">key: msg_id</text></g><g id="shape53-148" transform="translate(358.076,-85.997)"><title>Sheet.53</title><path d="M0 259.15 L97.91 259.15" class="st14"/></g><g id="shape54-153" transform="translate(630.202,433.721) rotate(180)"><title>Sheet.54</title><path d="M0 259.15 L104.88 259.15" class="st15"/></g><g id="shape55-158" transform="translate(82.5801,-51.9812)"><title>Rectangle.57</title><path d="M0 259.15 L113.39 259.15 L113.39 80.57 L0 80.57 L0 259.15 Z" class="st17"/></g><g id="shape56-160" transform="translate(96.7534,-64.7371)"><title>Rectangle.56</title><desc>Direct Consumer</desc><rect width="85.039" height="42.52" x="0" y="216.631" class="st18"/><text x="27.83" y="234.29" class="st8">Direct<tspan x="17.63" class="st9" dy="1.2em">Consumer</tspan></text></g><g id="shape57-164" transform="translate(63.273,-26.4694)"><title>Sheet.57</title><desc>Invoker (e.g. api)</desc><rect width="152" height="20" x="0" y="239.15" class="st13"/><text x="57.66" y="245.55" class="st8">Invoker<tspan x="54.76" class="st9" dy="1.2em">(</tspan>e.g. api)</text></g><g id="shape58-168" transform="translate(96.7534,-175.288)"><title>Rectangle.55</title><desc>Topic Publisher</desc><rect width="85.039" height="42.52" x="0" y="216.631" class="st18"/><text x="29.37" y="234.29" class="st8">Topic <tspan x="19.79" class="st9" dy="1.2em">Publisher</tspan></text></g><g id="shape59-172" transform="translate(181.793,-196.548)"><title>Sheet.59</title><path d="M0 259.15 L113.92 259.15" class="st15"/></g><g id="shape60-177" transform="translate(298.549,432.304) rotate(180)"><title>Sheet.60</title><path d="M0 259.15 L116.76 259.15" class="st15"/></g><g id="shape61-182" transform="translate(336.47,-0.80014)"><title>Sheet.61</title><desc>RabbitMQ Node</desc><rect width="152" height="20" x="0" y="239.15" class="st13"/><text x="16.72" y="254.55" class="st19">RabbitMQ Node</text></g><g id="shape62-185" transform="translate(15.0841,-196.548)"><title>Sheet.62</title><path d="M0 259.15 L36.71 259.15" class="st20"/></g><g id="shape64-191" transform="translate(6.58013,-193.714)"><title>Sheet.64</title><desc>rpc.call (topic.host)</desc><rect width="68.031" height="37.008" x="0" y="222.143" class="st13"/><text x="16.55" y="235.85" class="st8">rpc.call<tspan x="5.95" class="st9" dy="1.1em">(</tspan>topic.host)</text></g><g id="shape63-195" transform="translate(224.848,-196.548)"><title>Sheet.63</title><path d="M0 259.15 L36.71 259.15" class="st20"/></g><g id="shape66-200" transform="translate(550.832,-84.5797)"><title>Sheet.66</title><path d="M13.95 259.15 L14.31 259.15 L51.02 259.15" class="st22"/></g><g id="shape67-206" transform="translate(224.848,-85.997)"><title>Sheet.67</title><path d="M13.95 259.15 L14.31 259.15 L51.02 259.15" class="st22"/></g><g id="shape68-211" transform="translate(550.832,-156.863)"><title>Sheet.68</title><path d="M0 259.15 L36.71 259.15" class="st20"/></g></g></svg>